<?xml version="1.0" encoding="utf-8"?>
<!-- Generator: Adobe Illustrator 24.0.1, SVG Export Plug-In . SVG Version: 6.00 Build 0)  -->
<svg version="1.1" id="Layer_1" xmlns="http://www.w3.org/2000/svg" xmlns:xlink="http://www.w3.org/1999/xlink" x="0px" y="0px"
	 viewBox="0 0 765.5 184.7" style="enable-background:new 0 0 765.5 184.7;" xml:space="preserve">
<style type="text/css">
	.st0{fill:#1A1018;}
	.st1{fill:url(#SVGID_1_);}
	.st2{fill:url(#SVGID_2_);}
	.st3{fill:url(#SVGID_3_);}
	.st4{fill:url(#SVGID_4_);}
	.st5{fill:url(#SVGID_5_);}
	.st6{fill:url(#SVGID_6_);}
</style>
<g>
	<g>
		<path class="st0" d="M323.6,69.1c-13.2,0-23.9,10.3-23.9,23.1s10.7,23.2,23.9,23.2c6.2,0,12-2.4,16.4-6.3l1.9,2.2
			c-4.9,4.5-11.5,7.2-18.4,7.2c-14.9,0-26.9-11.7-26.9-26.2s12.1-26.1,26.9-26.1c7,0,13.5,2.7,18.4,7l-1.9,2.4
			C335.7,71.5,329.8,69.1,323.6,69.1z"/>
		<path class="st0" d="M399.2,92.3c0,14.5-12.1,26.2-27,26.2s-27-11.7-27-26.2s12.1-26.1,27-26.1C387.2,66.1,399.2,77.8,399.2,92.3z
			 M348.4,92.3c0,12.8,10.7,23.1,23.8,23.1S396,105,396,92.3c0-12.8-10.7-23.1-23.8-23.1S348.4,79.5,348.4,92.3z"/>
		<g>
			<path class="st0" d="M412.3,69.3h15.4c10.9,0,17.1,5,17.1,14.2c0,8.6-5.3,13.7-14.7,14.4l14.3,20.5h3.7L435,100.2
				c8.3-2.1,12.8-7.9,12.8-16.8c0-10.9-7.3-17.2-20.2-17.2h-18.4v52.2h3.1V69.3L412.3,69.3z"/>
		</g>
		<polygon class="st0" points="480.4,66.2 477,66.2 453.3,118.4 456.8,118.4 478.6,69.8 500.8,118.4 504.2,118.4 		"/>
		<path class="st0" d="M465.9,93.8c-0.4,0.9-0.8,1.9-1.3,2.8l36.1,21.7l2.8-1.9L465.9,93.8z"/>
		<path class="st0" d="M514,66.2v49.1h23.2v3.1h-26.3V66.2H514L514,66.2z"/>
	</g>
	<g>
		
			<linearGradient id="SVGID_1_" gradientUnits="userSpaceOnUse" x1="43.8503" y1="-1228.1918" x2="153.3995" y2="-1228.1918" gradientTransform="matrix(1 0 0 -1 0 -1127.3398)">
			<stop  offset="0" style="stop-color:#00DDFF"/>
			<stop  offset="0.2502" style="stop-color:#00D1EA"/>
			<stop  offset="0.7636" style="stop-color:#00B1B5"/>
			<stop  offset="1" style="stop-color:#00A19A"/>
		</linearGradient>
		<path class="st1" d="M98.7,154.4c1-1.6,2-3.1,2.8-4.8s1.5-3.5,1.9-5.4c0.5-2.2,0.7-4.4,0.7-6.7c2.6,1.2,5.2,2.3,8,3.1
			c2.9,0.8,5.8,1.4,8.7,1.7c5.8,0.7,11.7,0.8,17.5,0.1c5.8-0.7,11.6-2.3,16.8-5.2c0.5-0.3,0.8-1,0.5-1.6s-1.1-0.9-1.7-0.5l0,0
			c-4.9,2.4-10.4,3.6-15.9,4s-11.1,0.1-16.6-0.7c-2.7-0.5-5.4-1.1-8-1.9c-2.5-0.8-5-2-7.5-3.3c-1.2-0.6-6.3-3.7-7.1-4.3
			c-2.2-1.5-5.3-3.8-7.2-5.5c-1.2-5-3.9-9.7-8.1-13.1c-1.4-1.2-3-2.2-4.6-3c-0.8-0.3-1.6-0.8-2.4-1.1l-2.4-1c-1.6-0.5-3.3-1-4.9-1.4
			c-0.1,0-0.1,0-0.2-0.1c-0.5-0.1-1-0.2-1.6-0.3c-3.7-0.6-5.4-0.5-5.4-0.5c3.4-2,6.5-3.1,10.4-3.1c0.1,0,0.2,0,0.3,0s0.1,0,0.1,0
			c0.1,0,0.2,0,0.3,0l0,0c2.3,0.1,4.8,0.3,7.1,0.8c2.6,0.5,5.1,1.1,7.6,1.8c1.2,0.3,2.5,0.7,3.7,1.2c1.2,0.4,2.5,0.8,3.9,1
			c1.9,1.2,3.5,3.1,4.6,5.3c0.9,1.6,1.9,3.5,3.3,5c1.3,1.6,2.9,3,4.7,3.9c0.3,0.2,0.7,0.1,1-0.1c0.3-0.3,0.3-0.8-0.1-1.2l0,0
			c-1.4-1.2-2.4-2.7-3.3-4.2c-0.9-1.6-1.4-3.2-2.1-5.1c-0.5-1.2-1.2-2.4-2-3.5c1.2-0.1,2.4-0.3,3.6-0.5c2.9-0.5,5.6-1.3,8.2-2.2
			c0.8-0.3,1.6-0.6,2.4-0.9c0.3,0,0.7,0,1.2,0.1c1.1,0.1,2.3,0.5,3.5,0.9c2.4,0.7,5,1.6,7.8,2.2c2.7,0.5,5.6,0.8,8.4,0.3
			c2.8-0.4,5.4-1.5,7.8-2.9c0.5-0.3,0.7-0.8,0.4-1.4s-0.9-0.7-1.4-0.5h-0.1c-2.3,1-4.7,1.8-7.1,2c-2.4,0.2-4.9-0.2-7.3-1
			c-2.2-0.6-4.4-1.6-6.7-2.4c2.1-0.9,4.2-1.8,6.3-2.7c1.3-0.5,2.4-1.1,3.6-1.6c1.2-0.5,2.4-0.8,3.5-1.1c2.4-0.5,4.8-0.5,7,0.1
			s4.3,1.8,6,3.6c1.7,1.7,3.3,3.9,4.6,6.1c5.4,9,7.6,19.8,7.8,30.5l0,0c0,0.4,0.3,0.7,0.7,0.8c0.5,0,0.8-0.3,0.9-0.7
			c0.3-5.5,0.1-11-0.9-16.5c-1-5.4-2.7-10.9-5.4-15.8c-1.4-2.5-2.9-4.8-4.9-7.1c-2-2.2-4.7-4-7.7-5s-6.2-1-9.1-0.4
			c-1.5,0.3-2.9,0.6-4.3,1.1c-1.4,0.5-2.7,1-3.9,1.5c-5,2-10,4.1-15,5.7s-10.1,2.7-14.8,2c-1.2-0.1-2.2-0.4-3.3-0.9
			c-1.4-0.5-2.7-1-4-1.4c-2.7-0.8-5.4-1.5-8.2-2c-0.8-0.1-1.6-0.3-2.4-0.4c2.9-1,5.7-2,8.5-3.3c3.3-1.4,6.6-3.2,9.6-5.4
			c3-2.2,5.8-5.1,7.5-8.7c0.9-1.9,1.3-3.4,2-4.9s1.6-2.9,2.5-4.1c1-1.3,2.1-2.4,3.4-3.3c0.6-0.4,1.3-0.8,2-1.2
			c0.7-0.3,1.5-0.6,2.2-0.8c6.3-1.9,13.5-1.5,19.4,1.7c0.5,0.3,1.1,0.1,1.4-0.3c0.3-0.5,0.2-1.2-0.3-1.5c-3.1-2-6.7-3.4-10.3-3.9
			s-7.5-0.3-11.1,0.6c-0.5,0.1-0.9,0.3-1.4,0.4c-0.5,0.1-0.9,0.3-1.4,0.5c-1,0.4-1.8,0.9-2.7,1.4c-1.6,1.1-3.1,2.4-4.4,3.9
			c-1.3,1.5-2.2,3.1-3.1,4.8c-0.9,1.7-1.5,3.6-2.1,4.9c-1.4,2.8-3.6,5.2-6.3,7.2c-2.7,2-5.6,3.7-8.7,5.2c-2.2,1.2-4.6,2.2-6.9,3.2
			c2.4-3.3,4.1-7,5.6-10.6c2-5,3.7-9.9,6.3-14.2c4.8-8.6,14.2-14,24.2-15c5-0.6,10.2-0.3,15.3,0.5s10.2,2.2,14.9,4.1h0.1
			c0.8,0.3,1.8-0.1,2.1-0.9c0.3-0.8,0-1.8-0.9-2.2c-5.1-2.2-10.2-3.7-15.6-4.8c-5.3-1-10.8-1.5-16.3-1s-11.1,2-16,4.8
			c-2.4,1.4-4.8,3.1-6.9,5.1c-1.6,1.5-3,3.2-4.2,5c-0.5-1.8-1.2-3.6-2.1-5.2c-2-3.7-5-6.7-8.8-8.5c-0.3-0.2-0.8-0.1-1,0.3
			c-0.3,0.4-0.1,0.9,0.3,1.2l0,0c3.1,2,5.4,5,6.8,8.4c0.7,1.7,1.2,3.5,1.4,5.2c0.2,1.8,0.1,3.5-0.3,5l0,0c0,0.1-0.1,0.2-0.1,0.3
			c0,0.1,0,0.1,0,0.1c-1.6,3.3-2.9,6.5-4.3,9.7c-2.1,4.8-4.6,9-7.9,12.4s-9,5.8-9.1,5.9c0.2-0.7,0.4-1.5,0.6-2.2
			c0.5-1.9,0.9-3.7,1.5-5.3c0.3-0.8,0.6-1.6,1-2.3c0.4-0.7,0.8-1.3,1.4-2.2c2.3-3.3,4.1-7.3,4.4-11.6c0.1-2.1-0.3-4.3-1-6.2
			c-0.7-2-1.8-3.7-3.1-5.4c-0.3-0.5-1-0.6-1.6-0.3c-0.5,0.3-0.7,1.1-0.3,1.6l0,0c2,3,3.1,6.5,2.7,9.9s-2.1,6.7-4.4,9.4
			c-0.5,0.5-1.2,1.4-1.8,2.3c-0.5-2.1-1.2-4.1-2-6.1c-0.9-2.2-2.1-4.1-3.3-6.1c-0.3-0.5-1.1-0.8-1.7-0.5c-0.7,0.3-1,1.1-0.7,1.8v0.1
			c0.9,2,1.8,3.9,2.4,6.1c0.6,2,1,4.1,1.2,6.2c0.4,4.1-0.5,9.6-2.2,12.9c-3.6,0.7-7.4,1-11.2,1l0,0h-0.1c-1.9,0-3.4,1.6-3.4,3.5
			c0,0.7,0.1,3.3,0.1,4.1c0,1.9,1.6,3.5,3.5,3.5c3.6,0,6.7-0.4,9.8-0.5c2.4-0.1,4.8-0.2,7.1-0.1c1.5,1.8,2.7,4,3.3,6.4
			c0.5,1.6,0.8,3.2,1,4.9c0.2,1.7,0.1,3.4,0.1,5.1v0.1c0,0.6,0.4,1.2,1.1,1.4c0.7,0.1,1.4-0.3,1.6-1c0.3-1.8,0.7-3.7,0.7-5.6
			c0.1-1.9,0.1-3.8-0.2-5.7c-0.2-1.6-0.6-3.2-1.2-4.8c1.4,0.3,2.9,0.6,4.3,1l2.1,0.7c0.7,0.3,1.4,0.5,2,0.9c1.4,0.6,2.5,1.2,3.6,2
			c2.2,1.6,4.1,3.7,5.4,6.2s2.2,5.3,2.4,8.2c0.5,5.7-1.2,12-5.6,16l0,0c-0.5,0.5-0.6,1.2-0.2,1.8s1.3,0.7,1.9,0.3
			c2.9-2,5.1-4.9,6.5-8c1.3-2.8,1.9-5.8,2-8.9c1.2,0.9,2.4,1.8,3.7,2.6c0.5,0.3,1,0.5,1.4,0.9c0.1,0.1,0.1,0.3,0.1,0.5
			c1.3,2.7,1.8,5.9,1.5,9.2c-0.1,1.6-0.5,3.3-1,4.9c-0.4,1.6-1.1,3.2-1.8,4.8v0.1c-0.3,0.6-0.1,1.3,0.5,1.6
			C97.5,155.2,98.3,155,98.7,154.4z"/>
		
			<linearGradient id="SVGID_2_" gradientUnits="userSpaceOnUse" x1="222.2457" y1="-1208.7156" x2="92.4338" y2="-1208.7156" gradientTransform="matrix(1 0 0 -1 0 -1127.3398)">
			<stop  offset="0" style="stop-color:#00ECC6"/>
			<stop  offset="0.3246" style="stop-color:#00D7BA"/>
			<stop  offset="0.9916" style="stop-color:#00A29A"/>
			<stop  offset="1" style="stop-color:#00A19A"/>
		</linearGradient>
		<path class="st2" d="M172.3,29.7c-2.9,2-5.1,4.9-6.5,8c-1.3,2.8-1.9,5.8-2,8.9c-1.2-0.9-2.4-1.8-3.7-2.6c-2.5-1.6-5-3.1-7.7-4.3
			c-2.7-1.3-5.4-2.4-8.4-3.3c-2.9-0.8-5.8-1.4-8.7-1.7c-5.8-0.7-11.7-0.8-17.5-0.1s-11.6,2.3-16.8,5.2c-0.5,0.3-0.8,1-0.5,1.6
			s1.1,0.9,1.7,0.5l0,0c4.9-2.4,10.4-3.5,15.9-4c5.5-0.4,11.1-0.1,16.6,0.7c2.7,0.5,5.4,1.1,8,1.9c2.5,0.8,5,2,7.5,3.3
			s4.8,2.7,7.1,4.3c2.1,1.5,5.4,4.1,7.3,5.8c0.7,2.7,1.9,5.4,3.5,7.8c0,0-5-1.2-7.5-3.3s-4.8-5.9-6.2-7.6c-0.2-0.3-0.5-0.4-0.9-0.3
			c-0.5,0.1-1,0.5-0.9,1.1l0,0c0.1,0.3,0.1,0.6,0.1,1c0.5,2.9,2.9,6.7,6.5,9.7c3,2.4,11.4,5.4,15.4,6.7c0.7,0.2,1.5,0.5,2.2,0.7
			c0.1,0.1,0.2,0.1,0.3,0.1c0.8,0.3,1.6,0.8,2.4,1.1l2.4,1c2.9,1,5.8,1.7,8.8,2.1c-0.8,0.4-1.7,0.9-2.5,1.4
			c-1.4,0.5-3.3,0.6-5.2,0.6c-2.5-0.1-5.2-0.4-7.8-0.9c-2.7-0.5-5.2-1.1-7.8-1.9l-1.9-0.6l-2-0.7c-1.6-0.5-3.1-0.8-4.8-1
			c-3.1-0.3-6.2,0.1-9.1,0.7c-2.9,0.6-5.6,1.5-8.4,2.4c-0.4,0.1-0.8,0.3-1.2,0.5c-0.3,0-0.7,0-1.2-0.1c-1.1-0.1-2.3-0.5-3.5-0.9
			c-2.4-0.7-5-1.6-7.8-2.2c-2.7-0.5-5.6-0.8-8.4-0.3c-2.8,0.4-5.4,1.5-7.8,2.9c-0.5,0.3-0.7,0.8-0.4,1.4c0.3,0.5,0.9,0.7,1.4,0.5
			h0.1c2.3-1,4.7-1.8,7.1-2s4.9,0.2,7.3,1c2.2,0.6,4.4,1.6,6.6,2.4c-2.6,1.1-5.2,2.2-7.8,3.4c-4.7,2.2-9.9,3.3-14.3,1.4
			c-2.2-1-4.1-2.5-5.8-4.6c-1.7-2-3.1-4.3-4.4-6.7c-2.5-4.8-4.2-9.9-5.2-15.3S94.5,44.5,94.6,39c0-0.4-0.3-0.8-0.7-0.8
			c-0.5-0.1-0.8,0.3-0.9,0.7c-0.5,5.6-0.5,11.3,0.3,16.9s2.3,11.2,4.8,16.5c1.2,2.6,2.7,5.1,4.5,7.5s4.1,4.6,7.1,6
			c2.9,1.4,6.2,1.8,9.2,1.6c3.1-0.3,6-1.2,8.8-2.2c5.2-2.1,10.3-4.3,15.4-6s10.4-2.9,15.2-2.5c1.2,0.1,2.4,0.3,3.4,0.7l2,0.7l2,0.7
			c2.8,0.9,5.6,1.6,8.4,2.2c1.3,0.3,2.7,0.5,3.9,0.6c-3.3,1.1-6.5,2.2-9.7,3.7c-3.3,1.4-6.6,3.2-9.6,5.4s-5.8,5.1-7.5,8.7
			c-0.9,1.9-1.3,3.4-2,4.9s-1.6,2.9-2.5,4.1c-1,1.3-2.1,2.4-3.4,3.3c-0.6,0.4-1.3,0.8-2,1.2c-0.7,0.3-1.5,0.6-2.2,0.8
			c-6.3,1.9-13.5,1.5-19.4-1.7c-0.5-0.3-1.1-0.1-1.4,0.3c-0.3,0.5-0.2,1.2,0.3,1.5c3.1,2,6.7,3.4,10.3,3.9s7.5,0.3,11.1-0.6
			c0.5-0.1,0.9-0.3,1.4-0.4s0.9-0.3,1.4-0.5c1-0.4,1.8-0.9,2.7-1.4c1.6-1.1,3.1-2.4,4.4-3.9c1.2-1.5,2.2-3.1,3.1-4.8
			c0.9-1.7,1.5-3.6,2.1-4.9c1.4-2.9,3.6-5.2,6.3-7.2s5.6-3.7,8.7-5.2c2.4-1.2,5-2.3,7.5-3.5c-2.7,3.7-4.6,7.7-6.3,11.6
			c-2.1,5.1-3.9,10.1-6.4,14.5c-2.4,4.5-5.7,8.4-9.8,11.4c-1,0.7-2.1,1.5-3.1,2.1c-1.1,0.6-2.2,1.2-3.3,1.7c-2.3,1-4.8,1.7-7.3,2.2
			c-5,0.9-10.3,0.7-15.4-0.1c-5.2-0.8-10.3-2.2-15.1-4.2l-0.1-0.1c-0.8-0.3-1.8,0.1-2.1,0.8c-0.3,0.8,0,1.8,0.8,2.2
			c5.2,2.3,10.4,3.9,15.8,4.9c5.4,1,11.1,1.4,16.7,0.5c2.8-0.4,5.6-1.2,8.3-2.2c1.4-0.5,2.7-1.2,3.9-1.9s2.4-1.5,3.6-2.3
			c4.7-3.3,8.6-7.8,11.5-12.6c2.9-4.9,4.9-10.1,7.1-14.8c0.1-0.1,0.1-0.2,0.1-0.3c0,0.3-0.1,0.5-0.1,0.7c-0.3,3.7-0.4,7.4-0.1,11
			c0.4,3.7,1.2,7.3,2.3,10.7c0.1,0.4,0.5,0.7,1,0.6s0.7-0.5,0.7-1v-0.1c-0.7-3.4-1.2-6.9-1.2-10.4s0.4-6.9,1.1-10.3
			c0.7-3.4,1.7-6.7,3.1-9.8c0.3-0.7,0.7-1.5,1.1-2.3c0.4-0.7,0.7-1.5,1.2-2.2l0.1-0.1c0.1,0.1,0.1,0.3,0.1,0.5
			c0.5,2,1.2,3.9,2.2,5.7c2,3.5,5,6.6,8.6,8.4c0.3,0.2,0.8,0.1,1-0.3c0.3-0.4,0.1-0.9-0.3-1.2l0,0c-3.1-2-5.3-4.9-6.6-8.2
			c-0.7-1.6-1.1-3.4-1.3-5.1c-0.1-1.2-0.1-2.4,0-3.6c2.2-1.5,4.6-2.7,7.1-3.5c4.7-1.6,9.7-2.2,14.8-2.1l0,0h0.1
			c1.9,0,3.5-1.6,3.4-3.5c0-0.5-0.1-2.2-0.1-2.7c0-1.9-1.6-3.5-3.5-3.5c-2.4,0-4.5,0.2-6.5,0.3c-3.3-2.6-5.6-7.1-6.7-11
			c-0.5-2-1-4.1-1.1-6.2c-0.2-2.1-0.1-4.3,0-6.5v-0.1c0.1-0.7-0.4-1.3-1.1-1.4c-0.7-0.1-1.4,0.3-1.6,1.1c-0.4,2.2-0.8,4.6-0.9,6.9
			c-0.1,2.1,0,4.2,0.3,6.4c-0.8-0.6-1.8-1.1-2.5-1.5c-3.1-1.8-5.9-4.1-7.5-7.1c-1.7-3.1-1.9-6.7-1.1-10.3l0,0
			c0.1-0.6-0.2-1.2-0.8-1.4s-1.2,0.1-1.4,0.7c-0.6,1.9-1,4-0.9,6.1s0.5,4.2,1.4,6.1c1.7,3.9,4.8,6.9,8.2,9.2c1,0.6,1.6,1,2.2,1.6
			c0.6,0.5,1.2,1.2,1.8,1.8c1.2,1.3,2.2,2.9,3.3,4.4c0.3,0.5,0.7,1,1.1,1.5c-1.7,0-3.5,0-5.2-0.1c-3-0.2-5.9-0.7-8.7-1.6l-2.1-0.7
			c-0.7-0.3-1.4-0.5-2-0.9c-1.4-0.6-2.5-1.2-3.6-2c-2.2-1.6-4.1-3.7-5.4-6.2c-1.3-2.5-2.2-5.3-2.4-8.2c-0.5-5.7,1.2-12,5.6-16l0,0
			c0.5-0.5,0.6-1.2,0.2-1.8C173.7,29.5,172.9,29.3,172.3,29.7z"/>
		<g>
			
				<linearGradient id="SVGID_3_" gradientUnits="userSpaceOnUse" x1="95.05" y1="-1241.1531" x2="95.05" y2="-1026.9872" gradientTransform="matrix(1 0 0 -1 0 -1127.3398)">
				<stop  offset="0" style="stop-color:#00DDFF"/>
				<stop  offset="0.2502" style="stop-color:#00D1EA"/>
				<stop  offset="0.7636" style="stop-color:#00B1B5"/>
				<stop  offset="1" style="stop-color:#00A19A"/>
			</linearGradient>
			<path class="st3" d="M96.8,58.6c-0.3-1-0.5-2-0.7-3.1c-0.1-0.7-0.3-1.4-0.4-2.2c-0.8,0.5-1.6,1.2-2.4,1.8c0,0.3,0.1,0.5,0.1,0.8
				c0.2,1.7,0.5,3.3,0.9,5C95.1,60.2,96,59.4,96.8,58.6z"/>
			
				<linearGradient id="SVGID_4_" gradientUnits="userSpaceOnUse" x1="102.5" y1="-1241.1531" x2="102.5" y2="-1026.9872" gradientTransform="matrix(1 0 0 -1 0 -1127.3398)">
				<stop  offset="0" style="stop-color:#00DDFF"/>
				<stop  offset="0.2502" style="stop-color:#00D1EA"/>
				<stop  offset="0.7636" style="stop-color:#00B1B5"/>
				<stop  offset="1" style="stop-color:#00A19A"/>
			</linearGradient>
			<path class="st4" d="M100.2,76.2c0.7,1.3,1.6,2.5,2.4,3.7c0,0,0,0,0.1,0.1c0.7-1,1.4-2,1.9-3.2c0.1-0.1,0.1-0.3,0.2-0.4
				c-1-1.3-1.9-2.7-2.8-4.1c-0.4,1-0.8,2-1.2,2.8C100.7,75.4,100.5,75.8,100.2,76.2z"/>
			
				<linearGradient id="SVGID_5_" gradientUnits="userSpaceOnUse" x1="161.4" y1="-1241.1531" x2="161.4" y2="-1026.9872" gradientTransform="matrix(1 0 0 -1 0 -1127.3398)">
				<stop  offset="0" style="stop-color:#00DDFF"/>
				<stop  offset="0.2502" style="stop-color:#00D1EA"/>
				<stop  offset="0.7636" style="stop-color:#00B1B5"/>
				<stop  offset="1" style="stop-color:#00A19A"/>
			</linearGradient>
			<path class="st5" d="M162.9,122.5c-0.1-1.9-0.4-3.8-0.7-5.7c-0.1-0.3-0.1-0.5-0.1-0.7c-0.7,1-1.4,1.8-2.2,2.7
				c0.4,1.9,0.7,3.8,1,5.7C161.5,123.8,162.2,123.2,162.9,122.5z"/>
			
				<linearGradient id="SVGID_6_" gradientUnits="userSpaceOnUse" x1="153.75" y1="-1241.1531" x2="153.75" y2="-1026.9872" gradientTransform="matrix(1 0 0 -1 0 -1127.3398)">
				<stop  offset="0" style="stop-color:#00DDFF"/>
				<stop  offset="0.2502" style="stop-color:#00D1EA"/>
				<stop  offset="0.7636" style="stop-color:#00B1B5"/>
				<stop  offset="1" style="stop-color:#00A19A"/>
			</linearGradient>
			<path class="st6" d="M156.1,99.6c-0.7-1.3-1.6-2.5-2.4-3.7c-0.8,1.1-1.6,2.2-2.2,3.5c0,0,0,0.1-0.1,0.1c0.7,1,1.5,2.1,2.2,3.2
				c0.2,0.3,0.3,0.6,0.5,1c0.3-1,0.7-1.8,1-2.4C155.5,100.7,155.7,100.2,156.1,99.6z"/>
		</g>
	</g>
</g>
</svg>
