<?xml version="1.0" encoding="utf-8"?>
<!-- Generator: Adobe Illustrator 22.1.0, SVG Export Plug-In . SVG Version: 6.00 Build 0)  -->
<svg version="1.1" id="Layer_1" xmlns="http://www.w3.org/2000/svg" xmlns:xlink="http://www.w3.org/1999/xlink" x="0px" y="0px"
	 viewBox="0 0 100 100.1" style="enable-background:new 0 0 100 100.1;" xml:space="preserve">
<g>
	<path d="M42.5,78c7.3,0,14-2.2,19.6-5.9L81,90.9c1.4,1.4,3.2,2.1,5,2.1s3.6-0.7,5-2.1c2.7-2.7,2.7-7.2,0-9.9L72,62.1
		c3.8-5.6,5.9-12.4,5.9-19.6C78,22.9,62.1,7,42.5,7S7,22.9,7,42.5S22.9,78,42.5,78z M42.5,21C54.3,21,64,30.6,64,42.5
		C64,54.3,54.3,64,42.5,64C30.6,64,21,54.3,21,42.5C21,30.6,30.6,21,42.5,21z"/>
</g>
</svg>
